<?xml version="1.0" encoding="UTF-8" standalone="no"?>
<svg
   xmlns:dc="http://purl.org/dc/elements/1.1/"
   xmlns:cc="http://creativecommons.org/ns#"
   xmlns:rdf="http://www.w3.org/1999/02/22-rdf-syntax-ns#"
   xmlns:svg="http://www.w3.org/2000/svg"
   xmlns="http://www.w3.org/2000/svg"
   xmlns:xlink="http://www.w3.org/1999/xlink"
   xmlns:sodipodi="http://sodipodi.sourceforge.net/DTD/sodipodi-0.dtd"
   xmlns:inkscape="http://www.inkscape.org/namespaces/inkscape"
   width="387.06055"
   height="387.06055"
   id="svg3044"
   version="1.1"
   inkscape:version="0.92.3 (2405546, 2018-03-11)"
   sodipodi:docname="Logo.3-Finished.svg"
   inkscape:export-filename="/home/matthias/Projects/EarthOS/Logo/Logo.3-Finished.svg.200x200.png"
   inkscape:export-xdpi="49.599998"
   inkscape:export-ydpi="49.599998">
  <sodipodi:namedview
     pagecolor="#ffffff"
     bordercolor="#666666"
     borderopacity="1"
     objecttolerance="10"
     gridtolerance="10"
     guidetolerance="10"
     inkscape:pageopacity="0"
     inkscape:pageshadow="2"
     inkscape:window-width="1280"
     inkscape:window-height="736"
     id="namedview3063"
     showgrid="false"
     inkscape:zoom="5.7791876"
     inkscape:cx="159.36777"
     inkscape:cy="399.88983"
     inkscape:window-x="0"
     inkscape:window-y="0"
     inkscape:window-maximized="1"
     inkscape:current-layer="svg3044"
     showguides="true"
     inkscape:guide-bbox="true"
     inkscape:snap-global="true"
     inkscape:snap-bbox="true"
     inkscape:snap-nodes="false"
     inkscape:snap-bbox-midpoints="true"
     fit-margin-top="0"
     fit-margin-left="0"
     fit-margin-right="0"
     fit-margin-bottom="0"
     units="px">
    <sodipodi:guide
       orientation="-0.70710678,0.70710678"
       position="167.59122,138.9725"
       id="guide3878"
       inkscape:locked="false" />
    <sodipodi:guide
       orientation="0.70710678,0.70710678"
       position="29.086483,329.35534"
       id="guide3884"
       inkscape:locked="false" />
  </sodipodi:namedview>
  <defs
     id="defs3046">
    <linearGradient
       id="imagebot_12">
      <stop
         stop-color="#9394b8"
         id="imagebot_36"
         offset="0" />
      <stop
         stop-color="#ffffff"
         offset="1"
         id="imagebot_35" />
    </linearGradient>
    <linearGradient
       y2="541.48401"
       x2="368.42188"
       y1="362.49338"
       x1="368.42188"
       id="imagebot_4"
       xlink:href="#imagebot_12"
       gradientTransform="scale(0.9998844,1.0001156)"
       gradientUnits="userSpaceOnUse" />
    <linearGradient
       y2="363.96494"
       x2="262.26715"
       y1="911.04651"
       x1="262.26715"
       id="imagebot_8"
       xlink:href="#imagebot_12"
       gradientTransform="scale(1.4138338,0.70729672)"
       gradientUnits="userSpaceOnUse" />
    <linearGradient
       y2="640.52838"
       x2="258.53296"
       y1="363.83929"
       x1="258.53296"
       id="imagebot_10"
       xlink:href="#imagebot_12"
       gradientTransform="scale(1.4138338,0.7072967)"
       gradientUnits="userSpaceOnUse" />
    <linearGradient
       id="linearGradient4198">
      <stop
         style="stop-color:#588cb5;stop-opacity:1;"
         offset="0"
         id="stop4200" />
      <stop
         style="stop-color:#438cc4;stop-opacity:1;"
         offset="1"
         id="stop4202" />
    </linearGradient>
  </defs>
  <metadata
     id="imagebot_11">image/svg+xml<rdf:RDF>
  <cc:Work
     rdf:about="">
    <dc:format>image/svg+xml</dc:format>
    <dc:type
       rdf:resource="http://purl.org/dc/dcmitype/StillImage" />
    <dc:title></dc:title>
  </cc:Work>
</rdf:RDF>
</metadata>
  <path
     style="fill:#0f4e9e;fill-opacity:1;fill-rule:nonzero;stroke-width:33.8053093;stroke-linecap:round;stroke-miterlimit:4;stroke-dashoffset:0;marker-start:none;marker-mid:none;marker-end:none"
     d="m 195.00196,0.103633 c -1.07323,-0.0018 -2.14835,0.0043 -3.22266,0.0078 -1.07494,0.01139 -2.14366,-0.0278 -3.2168,0 h -0.002 c -3.19972,0.08311 -6.37663,0.235277 -9.56055,0.46875 -1.01263,0.0742 -2.02093,0.22302 -3.03125,0.3125 l -14,46.374997 c -10.15869,2.09683 -20.0712,5.18036 -29.59375,9.21875 L 93,26.892693 c -1.315669,0.75378 -2.63879,1.46594 -3.9375,2.25 -2.716921,1.63989 -5.391719,3.35434 -8.03125,5.125 -2.639269,1.77078 -5.256511,3.60013 -7.8125,5.5 -2.556039,1.89981 -5.063959,3.87912 -7.53125,5.90625 -0.980411,0.80563 -1.91157,1.67135 -2.875,2.5 L 79.25,93.361441 c -0.0355,0.0384 -0.05835,0.0866 -0.09375,0.125 l 0.125,0.375 c -6.912431,7.533939 -13.130521,15.847449 -18.5,24.906289 l -49.5,-1.34375 c -0.981579,2.22409 -1.98515,4.44558 -2.875,6.6875 -1.21228,3.05432 -2.33096,6.10504 -3.375,9.1875 -1.04365,3.08258 -2.02916,6.20715 -2.90625,9.3125 -0.78567,2.7821 -1.47246001,5.54989 -2.125,8.34375 l 40.5,27.09375 c -0.368122,9.90893 -0.391875,19.0508 0.5,28.65625 l -41,27.4375 c 0.012,0.0529 0.0505,0.10336 0.0625,0.15625 0.71210999,3.12265 1.49802,6.23837 2.375,9.34375 0.877,3.10532 1.83127,6.19867 2.875,9.28125 1.04373,3.08258 2.16275,6.13318 3.375,9.1875 0.8800797,2.21735 1.840461,4.4292 2.8125,6.625 l 49.125,-1.34375 c 0.32849,0.55518 0.72672,1.07367 1.0625,1.625 H 62 c 2.407849,3.95306 4.967161,7.77521 7.6875,11.4375 2.72032,3.66223 5.586961,7.16986 8.59375,10.53125 l -16.6875,45.8125 c 1.450009,1.26459 2.89124,2.53088 4.375,3.75 2.467201,2.0271 4.97525,4.00647 7.53125,5.90625 2.556049,1.8999 5.17327,3.72931 7.8125,5.5 2.639251,1.77081 5.31439,3.48511 8.03125,5.125 0.777281,0.46924 1.555181,0.92773 2.34375,1.375 l 39,-29.34375 c 0.0173,0.008 0.0354,0.0121 0.0527,0.0195 l 11.67968,-25.30274 A 122.87083,122.87089 0 0 1 69.867187,191.84976 122.87083,122.87089 0 0 1 192.73828,68.980584 122.87083,122.87089 0 0 1 315.60938,191.84976 122.87083,122.87089 0 0 1 242.5586,304.00015 l 11.49414,25.99609 c 0.2104,-0.0881 0.42278,-0.17069 0.63281,-0.25976 l 39.375,29.59375 c 1.31568,-0.75366 2.63877,-1.46588 3.9375,-2.25 2.71692,-1.63989 5.39173,-3.35431 8.03125,-5.125 2.63928,-1.77069 5.25653,-3.6001 7.8125,-5.5 2.55606,-1.89978 5.06397,-3.87915 7.53125,-5.90625 0.98041,-0.80566 1.91156,-1.67139 2.875,-2.5 l -16.43555,-45.1875 c 0.0355,-0.0384 0.0565,-0.0866 0.0918,-0.125 l -0.125,-0.375 c 6.91242,-7.53387 13.13053,-15.84741 18.5,-24.90625 l 49.5,1.34375 c 0.98163,-2.22412 1.98517,-4.44562 2.875,-6.6875 1.21228,-3.05432 2.331,-6.10504 3.375,-9.1875 1.0437,-3.08258 2.02918,-6.20718 2.90625,-9.3125 0.78571,-2.7821 1.47247,-5.5499 2.125,-8.34375 l -40.5,-27.09375 c 0.36787,-9.90955 0.39231,-19.04654 -0.5,-28.65625 l 41,-27.4375 c -0.012,-0.0529 -0.0504,-0.10337 -0.0625,-0.15625 -0.7121,-3.12265 -1.49798,-6.23838 -2.375,-9.34375 -0.87695,-3.10535 -1.83124,-6.19867 -2.875,-9.28125 -1.0437,-3.08258 -2.16272,-6.13318 -3.375,-9.1875 -0.88006,-2.21738 -1.84045,-4.42917 -2.8125,-6.625 l -49.125,1.34375 c -0.32849,-0.55521 -0.72671,-1.07364 -1.0625,-1.625 h -0.3125 c -2.40787,-3.95307 -4.96716,-7.77524 -7.6875,-11.4375 -2.72034,-3.66226 -5.58697,-7.169889 -8.59375,-10.531289 l 16.6875,-45.812498 c -1.45001,-1.26462 -2.89123,-2.53092 -4.375,-3.75 -2.46719,-2.02713 -4.97525,-4.00641 -7.53125,-5.90625 -2.55603,-1.89984 -5.17328,-3.72925 -7.8125,-5.5 -2.63925,-1.77075 -5.31439,-3.48508 -8.03125,-5.125 -0.77728,-0.46918 -1.5552,-0.92768 -2.34375,-1.375 L 256.375,57.111443 c -0.56766,-0.2489 -1.14953,-0.41471 -1.71875,-0.65625 l -0.0937,0.0625 c -4.30517,-1.8309 -8.70318,-3.43738 -13.15625,-4.875 -4.45306,-1.43762 -8.95871,-2.68003 -13.53125,-3.71875 l -0.0625,-0.15625 c -0.0223,-0.005 -0.0422,-0.02635 -0.0644,-0.03125 L 213.7168,1.173945 c -1.97339,-0.20362 -3.92492,-0.44846 -5.90625,-0.59375 -3.18457,-0.23352 -6.39328,-0.3544 -9.59375,-0.4375 -1.07028,-0.0278 -2.14162,-0.03731 -3.21484,-0.03906 z"
     id="imagebot_9"
     inkscape:connector-curvature="0" />
  <g
     style="fill-rule:evenodd"
     id="g2976"
     transform="matrix(0.00121121,0,0,0.00121121,84.477378,83.934941)">
    <circle
       r="89089.227"
       cy="90137.805"
       cx="90036.297"
       id="path2962"
       style="fill:#0f4e9e;fill-opacity:1;stroke:none;stroke-width:2969.125;stroke-miterlimit:4;stroke-dasharray:none;stroke-opacity:1" />
    <path
       style="fill:#f7f7f7;fill-opacity:1;stroke:none"
       id="path4651"
       d="m 94064.862,67340.51 -207.477,-88.858 z m 5927.941,58646.18 -800.272,-473.91 -2371.174,592.39 -2074.776,-1303.25 v 503.53 l -503.875,-681.24 592.794,-592.39 -88.919,-1777.15 h 681.712 l 414.955,-1184.78 474.235,-207.33 -385.315,-592.39 592.794,-207.33 -88.918,-888.58 -592.795,-296.19 770.632,-88.86 -474.235,-2162.21 -1185.592,-1184.77 -711.352,296.19 296.397,977.44 H 92079 l -2074.776,-888.58 -800.271,-385.05 -3942.079,-888.58 -296.397,473.91 -1393.066,118.47 h -385.316 l -592.794,977.44 -1689.463,-1184.78 -889.191,296.2 118.56,799.72 -2193.336,-1184.78 -88.919,770.1 -2163.701,-977.43 -118.559,88.85 -1067.033,414.67 -207.478,-799.71 -2578.648,-1273.63 -2756.486,-888.58 -503.875,-2280.69 v -503.53 l -1067.033,-1954.87 474.235,-2369.54 -889.19,-296.19 -296.397,-1007.06 1481.98,-177.71 h -681.712 l 88.919,-1480.96 -2163.701,681.24 -88.919,-592.38 -296.397,1095.91 -1185.592,473.9 -800.272,-770.09 -296.397,-799.73 -296.397,-1569.82 681.713,-503.53 296.397,385.05 207.477,-473.9 -503.874,-3554.32 800.271,177.715 385.316,-3732.032 118.559,-118.477 770.632,-473.908 -978.11,88.858 -385.315,-888.578 1778.378,-1984.493 -1600.539,-296.193 -1185.592,1184.775 -474.235,-1362.482 -711.353,977.436 -177.837,-681.243 -889.191,296.193 -592.794,296.193 474.235,-1777.153 -385.315,-207.335 207.477,-503.527 -503.874,118.477 -88.919,-1007.059 h 1867.303 l -88.919,-473.908 h -592.795 l -1096.667,-1895.631 -592.794,207.335 -385.316,-681.243 -207.477,592.386 -592.794,-414.669 592.794,-385.05 -889.191,-296.193 207.478,-503.528 -711.352,-385.05 -177.838,-1569.822 -711.352,-207.335 414.955,-296.193 -800.272,-2073.346 88.92,-681.243 296.397,-2073.347 h 592.794 l -177.838,1273.628 1481.98,2073.347 1067.033,1392.106 2193.336,592.386 v 88.857 l 296.397,-503.527 1185.592,1392.106 592.794,681.242 296.397,296.193 3349.283,1599.437 592.794,296.193 207.477,177.715 1570.905,1895.631 889.19,-414.67 6520.727,-1480.959 207.477,-1184.775 474.235,207.334 -88.919,-385.049 296.397,-207.335 1393.066,-503.528 v -1362.481 l 474.235,-503.528 592.794,-2280.687 -296.397,-888.578 1393.065,-3346.975 v -503.528 -1569.822 h 681.713 l 800.272,-1184.775 978.109,-296.193 118.559,-1095.912 1363.421,-1658.676 592.794,296.193 2786.132,-1007.059 296.397,-296.193 592.794,-592.385 -207.478,-977.436 h 592.794 l 296.397,1569.822 3052.885,710.863 503.875,-503.528 207.478,88.858 2667.572,592.386 88.919,-88.858 1393.066,-799.721 88.918,888.578 1185.593,118.477 978.11,770.101 207.47,207.335 1481.98,1273.628 1778.38,118.478 1096.67,177.715 1363.42,-473.908 118.56,888.578 592.8,385.05 474.23,-888.578 h 592.8 l 414.96,2280.688 474.22,88.858 -88.91,799.72 -88.93,88.857 h 177.84 l 1185.6,-592.385 1096.66,-385.05 3052.89,1066.297 592.79,-177.715 207.49,1066.298 800.27,118.477 -207.49,-503.527 h 681.71 l 207.49,1095.912 800.27,-888.578 1867.3,1184.776 503.87,2162.21 -800.27,207.334 207.49,1658.676 296.38,503.527 2074.78,5242.606 -1096.67,977.436 -88.91,1184.775 -889.2,1095.912 978.12,681.243 -385.32,296.193 889.19,888.577 1363.42,207.335 414.96,592.386 385.31,770.101 978.11,414.669 1185.6,-799.72 800.26,88.858 -978.1,1392.106 978.1,2576.871 -1185.59,977.436 503.88,1569.822 -296.39,1392.106 592.78,799.72 1570.91,296.19 -1570.91,2162.21 296.4,385.06 385.32,414.66 -681.72,1066.3 681.72,414.67 -3467.84,2843.45 800.27,1984.49 -207.48,1184.78 -1185.6,385.04 -296.38,1007.06 -1363.42,592.39 -414.96,1273.63 -296.4,681.24 1393.07,710.87 -2074.78,177.71 503.87,1095.91 -1007.75,977.44 -1570.91,296.19 -503.87,888.58 1185.59,592.38 -2252.61,2073.35 681.71,1095.91 -1778.38,-385.05 -1985.86,1184.78 -2667.57,1273.63 -592.8,888.58 -385.31,-296.19 385.31,-888.59 -1778.38,681.24 -385.31,-681.24 -2667.57,1569.83 -1185.59,-385.05 -2163.7,385.05 -592.8,-296.2 m 88.92,-57254.027 -207.48,-207.334 h -88.91 v 118.477 h 207.47 l 88.92,88.858 z m -681.717,56957.887 592.797,296.19 z m 0,0 592.797,296.19 m -42206.899,-41052.291 118.559,-710.862 -1096.668,-681.243 978.11,1392.106 z m -2371.174,-5449.946 h -592.794 l 296.397,888.577 296.397,-770.101 v -118.477 z m -296.397,-888.578 -296.397,296.193 592.794,414.67 z m 2667.572,6338.518 118.559,-710.862 -1096.668,-681.243 978.11,1392.106 z m -2371.174,-5449.946 h -592.794 l 296.397,888.577 296.397,-770.1 v -118.478 z m -296.397,-888.578 -296.397,296.193 592.794,414.67 z m 2667.572,6338.519 118.559,-710.863 -1096.668,-681.242 978.11,1392.106 z m -2371.174,-5449.947 h -592.794 l 296.397,888.578 296.397,-770.101 v -118.478 z m -296.397,-888.577 -296.397,296.192 592.794,414.67 z m 1778.378,-2073.347 v -770.101 l -681.713,177.715 88.92,503.528 592.794,88.858 z m -770.632,-2162.21 177.838,385.05 414.955,-888.578 -592.794,414.67 v 88.858 z m 770.632,2162.21 v -770.101 l -681.713,177.715 88.92,503.528 592.794,88.858 z m -770.632,-2162.21 177.838,385.05 414.955,-888.578 -592.794,414.67 v 88.858 z m 770.632,2162.21 v -770.101 l -681.713,177.715 88.92,503.528 592.794,88.858 z m -770.632,-2162.21 177.838,385.05 414.955,-888.578 -592.794,414.67 v 88.858 z m 10551.75,30211.663 -681.713,88.87 -592.794,799.71 978.11,-207.33 296.397,-681.24 z m 0,0 -681.713,88.87 -592.794,799.71 978.11,-207.33 296.397,-681.24 z m 0,0 -681.713,88.87 -592.794,799.71 978.11,-207.33 296.397,-681.24 z m 711.352,-20052.201 -207.478,-177.715 -592.794,-296.193 592.794,296.193 z"
       class="fil1"
       inkscape:connector-curvature="0" />
    <polygon
       style="fill:#f7f7f7;fill-opacity:1"
       id="polygon4677"
       points="145487,74597.3 144288,75197.2 144678,75377.1 144798,76397 144888,75587.1 145098,76397 145577,76397 144978,75377.1 145397,75377.1 144978,74987.2 "
       class="fil3"
       transform="matrix(0.9881581,0,0,0.9874773,1073.0585,1200.6632)" />
    <polygon
       style="fill:#f7f7f7;fill-opacity:1"
       id="polygon4679"
       points="59492.1,54590.7 58502.3,54200.8 57392.5,54800.7 "
       class="fil3"
       transform="matrix(0.9881581,0,0,0.9874773,1073.0585,1200.6632)" />
    <polygon
       style="fill:#f7f7f7;fill-opacity:1"
       id="polygon4681"
       points="67500.8,84495.6 66900.9,84195.6 67500.8,84495.6 67710.7,84675.6 "
       class="fil2"
       transform="matrix(0.9881581,0,0,0.9874773,1073.0585,1200.6632)" />
    <path
       sodipodi:nodetypes="ccccccccccccccccccccccccccccccccccccccccccccccccccccccccccccccccccccccccccccccccccccccccccccccccccccccccccccccccccccccccccccccccccccccccccccccccccccccccccccccccccccccccccccccccccccccccccccccccccccccccccccccccccccccccccccccccccccccccccccccccccccccccccccccccccccccccccccccccccccccccccccccccccccccccccccccccccccccccccccccccccccccccccccccccccccccccccccccccccccccccccccccccccccccccccccccccccccccccccccccccccccccccccccccccccccccccccccccccccccccccccccccccccccccccccccccccccccccccccccccccccccccccccccccccccccccccccccccccccccccccccccccccccccccccccccccccccccccccccccccccccccccccccccccccccccccccccccccccccccccccccccccccccccccccccccccccccccccccccccccccccccccccccccccccccccccccccccccccccccccccccccccccccccccccccccccccccccccccccccccccccccccccccccccccccccccccccccccccccccccccccccccccccccccccccccccccccccccccccccccccccccccccccccccccccccccccccccccccccccccccccccccccccccccc"
       inkscape:connector-curvature="0"
       id="_125380912"
       d="m 175087,112128.62 -148.04,738.86 148.04,-531.75 z m -148.04,738.86 -53.88,192.83 24.03,-44.15 z m -53.88,192.83 -183.74,340.86 -296.07,1095.96 v 207.76 l 207.12,-799.89 177.89,-503.83 z m -390.86,-339.57 -474.61,1865.33 -118.82,-88.94 -681.72,2162.69 -502.53,1481.61 -1067.39,2665.22 -1986.09,4650.02 -385.66,888.19 296.71,-296.06 770.68,-1776.38 503.82,-888.84 978.44,-2280.86 207.12,-770.68 800.53,-2190.61 384.37,-977.79 1097.25,-3347.59 v -296.07 z m -474.61,3169.05 -207.12,592.13 -88.94,385.66 z m -503.83,1362.8 -296.71,1007.01 v 0.67 l -207.11,383.71 -671.34,1840.01 286.97,-744.06 207.11,-414.88 88.31,-296.06 209.06,-480.45 -2,6.48 5.19,-13.63 54.53,-125.3 18.82,-72.72 218.15,-587.58 -118.81,207.76 207.76,-592.78 z m -325.93,1163.48 -59.73,227.89 88.95,-295.41 z m -858.97,2093.87 -503.83,1303.72 -177.9,385.01 -592.77,1480.97 -414.88,888.19 v 70.77 l 207.11,-455.13 503.83,-1184.9 889.49,-2191.92 z m -1689.38,4128.66 -116.22,255.16 116.22,-236.98 z m -116.22,255.16 -566.16,1155.04 -207.11,503.83 -38.31,87.65 201.27,-355.8 44.15,-146.73 z m -610.31,1390.72 -44.8,149.33 177.9,-385.01 z m -201.27,355.8 -50.64,90.24 -503.83,1095.96 -296.71,592.12 -96.74,223.35 -288.92,665.5 88.95,-207.12 -296.07,592.13 v -78.56 -10.37 l -8.44,27.26 -80.51,269.44 503.83,-977.79 88.95,-296.06 207.76,-296.72 z m -1532.91,3259.94 v -105.18 l -156.47,318.79 -50.64,93.49 7.78,-6.48 -103.23,211.01 -65.58,92.84 -241.53,447.35 273.34,-471.37 -49.34,99.99 57.13,-113.62 61.03,-105.83 -29.22,41.55 104.54,-208.41 42.2,-35.71 z m -149.98,258.41 -117.51,202.57 178.54,-254.51 z m -459.67,793.4 -39.61,67.52 -240.23,449.29 z m -39.61,67.52 257.11,-480.45 -111.67,159.72 -474.62,888.84 z m 257.11,-480.45 24.03,-34.42 161.02,-297.36 -13.63,11.7 z m 171.4,-320.09 13,-24.03 207.77,-407.09 v -7.15 l 88.95,-177.25 -88.95,157.12 v -68.17 l -103.89,251.26 -192.83,340.22 z m 309.7,-615.5 111.02,-214.91 185.05,-377.22 z m 111.02,-214.91 -102.58,208.42 487.6,-955.07 z m -199.97,399.3 v 7.15 l 80.51,-164.27 z m -5423.93,-6404.32 -2963.89,1687.43 -711.59,-118.17 h -385.01 l -1482.26,710.94 -889.49,-592.77 207.76,-887.54 h -711.59 l -1362.8,1480.31 -889.49,1480.97 -296.06,2547.71 v 118.81 l -2490.57,3850.13 207.76,1066.09 -800.54,2073.09 -3733.91,5627.8 -3378.76,2487.98 -88.95,-296.07 -800.54,473.96 h -1571.21 l 385.66,-385.01 -1067.39,592.78 385.66,207.11 -889.49,2457.46 385.67,207.77 -889.49,-414.88 207.11,-680.43 -503.83,-385.01 414.88,-414.88 -118.16,-385.01 -681.73,888.84 296.06,798.59 -888.19,88.95 v -887.54 l -681.72,681.07 -889.49,295.42 h -207.77 l -799.89,-472.66 h -385.66 l -889.49,88.29 -3348.89,1688.09 -799.89,1658.86 -296.71,-88.95 296.71,-503.82 -682.38,710.94 -118.16,-296.06 -1186.21,296.06 207.77,177.9 -1274.5,1688.73 385.01,-503.83 -88.95,296.71 -2281.51,1776.38 681.73,1303.07 -473.96,888.84 h 296.06 l -118.16,1184.91 -1067.39,1480.31 296.06,88.95 -414.88,1095.96 118.82,770.02 c 508.26,-271.38 445.73,-275.13 0,0 l 88.95,1007.66 1185.56,296.06 207.76,770.03 2370.46,-88.3 1363.45,-385.66 504.48,385.66 -88.95,-207.77 888.84,-177.89 -118.17,-207.12 296.06,-88.95 207.77,-207.12 1777.68,207.12 3468.36,-1480.97 889.48,296.07 770.68,-414.88 414.88,296.06 1273.85,-592.12 800.54,-681.73 592.78,88.95 1660.16,-681.08 414.88,-384.36 -118.17,-207.11 503.83,-503.83 -503.83,296.71 296.07,-592.78 h -473.96 l 473.96,-1569.91 800.54,-592.78 384.36,-296.06 889.49,-385.02 2875.58,-2191.26 1571.22,-1184.9 -296.72,888.84 207.77,-88.95 -593.43,592.13 h 207.76 l -503.82,591.48 592.77,-383.72 385.67,-592.77 118.16,88.95 384.37,-503.83 -207.12,296.71 592.78,-770.67 592.78,-414.88 592.77,-681.08 414.88,-207.11 385.66,-473.96 842.74,-799.89 h -161.02 l 1304.37,-1481.62 177.9,-206.47 414.88,-592.12 296.71,-296.72 -296.71,207.77 385.66,-385.01 -88.95,-118.82 384.37,-592.13 207.76,-681.72 -710.94,681.72 207.76,-473.96 384.36,-296.71 118.82,-296.07 88.95,88.95 592.77,-681.07 207.12,-414.88 -296.06,118.17 296.06,-207.12 v -207.76 l 88.95,414.88 978.44,-888.84 503.82,-710.95 88.95,-296.06 207.77,-88.95 207.76,-383.71 296.07,-207.77 -207.12,-207.11 385.01,-385.01 296.72,-592.78 -474.61,385.01 592.77,-770.02 -503.83,473.96 592.78,-681.73 88.95,-503.17 -177.9,207.11 -118.16,296.06 118.16,-503.17 -503.83,710.94 385.67,-710.94 799.89,-977.79 -88.95,-88.95 -503.83,473.96 -88.95,-88.95 385.66,-385.01 -207.76,-118.17 1008.3,-592.78 177.9,-1066.08 -474.61,177.24 385.66,-1776.38 680.43,-1480.96 592.78,-1066.74 800.54,-2368.51 503.82,-711.59 682.38,-2961.94 -88.95,-473.96 473.96,-296.71 -1067.39,-1094.66 -1600.43,798.59 414.88,-414.87 -100.64,-249.97 -314.24,73.37 z m -397.35,726.52 575.24,-133.75 -593.42,88.95 z m -9044.87,25042.05 h 46.74 l 259.06,-290.87 z m 305.8,-290.87 630.43,-597.97 88.95,-207.77 z m 17139.22,-25181.64 -889.49,1865.33 385.67,-770.03 z m -1304.36,2576.27 -592.78,770.68 -296.71,799.89 504.47,-977.79 z m -1067.39,1955.58 -503.83,799.89 v 207.12 l 385.66,-592.13 z m -503.83,1095.96 -296.06,296.06 -1481.62,2961.93 742.76,-1281.64 -61.03,96.74 888.84,-1569.27 z m -1034.92,1976.35 442.14,-703.15 -206.46,296.06 z m 353.19,392.8 -206.46,296.07 -148.68,308.4 237.63,-308.4 z m -355.14,604.47 -59.08,76.61 34.41,-25.96 z m -24.67,50.64 -212.31,440.85 296.72,-503.83 z m -212.31,440.85 h -40.25 l -77.91,177.9 z m -40.25,0 129.2,-296.07 -159.07,296.07 z m -29.88,0 h -136.99 l -340.87,681.08 h -44.8 v 88.94 l -414.88,592.78 434.36,-510.97 -1164.13,1902.99 h -40.9 l -414.88,591.47 v 88.95 l -177.9,301.91 v -5.18 l -296.71,414.23 -118.82,88.94 85.06,63.63 -85.06,144.14 92.2,-138.29 6.48,4.55 -13,21.44 13.63,-20.77 3.33,1.99 -74.67,113.62 -302.55,494.74 383.71,-603.16 9.74,7.14 296.72,-473.96 v -13.63 l 41.55,-62.97 -41.55,76.61 92.84,-154.52 677.83,-1029.09 158.42,-269.44 -40.25,61.68 -613.56,942.08 -97.39,153.22 -2.65,4.56 -85.71,127.9 185.69,-285.67 746.01,-1172.57 45.44,-65.58 -137.64,234.39 345.41,-530.45 38.95,-77.26 -75.31,97.39 124.01,-194.78 209.06,-418.13 264.9,-466.82 31.15,-37.01 -194.13,403.2 105.18,-195.43 296.71,-385.01 62.33,-207.77 h 26.63 v -207.11 l 88.94,-88.95 z m -627.84,1173.22 -101.93,189.58 -209.06,329.17 -48.7,97.39 168.81,-219.44 z m -2363.31,3746.89 -318.14,499.93 -978.44,1481.62 682.37,-977.79 z m 302.55,-494.74 57.79,-94.79 -259.06,398 173.35,-404.5 v -88.95 l -177.89,314.9 v 185.69 l -118.17,181.14 118.17,-179.2 v 1.33 l 1.99,-3.89 z m -205.81,124.66 v -18.19 l -207.12,385.02 z m 2460.7,-5053.86 -889.49,1273.85 -88.95,118.82 h 88.95 l -207.11,385.01 -296.72,296.07 -177.89,385.01 770.67,-1066.09 118.82,-118.82 z m -503.83,1096.6 -177.89,296.07 -1304.37,2162.69 -296.07,537.59 503.83,-745.35 888.84,-1362.8 296.71,-592.13 z m -1778.33,2996.35 -296.71,438.9 -385.66,799.89 z m 1284.89,-1144.65 -188.28,310.35 h -28.56 z m -373.97,535.64 -217.5,355.8 106.47,-196.73 z m -411.63,714.19 -25.96,48.05 -58.44,92.19 v -10.4 z m -1982.2,1814.69 -177.25,207.76 -207.76,385.02 -207.77,207.11 -177.89,385.01 -2281.51,3465.12 1986.09,-2665.23 88.3,-154.52 v 65.57 l 503.83,-710.94 88.95,-177.25 -476.56,618.75 861.57,-1507.59 z m -88.95,503.83 -88.3,207.11 -118.81,296.71 z m -1480.97,2280.85 -889.49,1273.21 800.54,-1095.31 z m -1482.26,2458.11 -978.44,1273.85 -930.39,1141.4 41.55,-45.44 1482.26,-1777.68 177.25,-296.07 296.72,-296.06 z m -1908.83,2415.25 -966.76,1050.51 118.82,-118.16 473.96,-473.96 z m -847.94,932.35 -719.38,854.42 511.62,-558.36 z m -719.38,854.42 -762.24,833.01 -3.32,3.89 -3.89,3.32 -496.69,496.69 -214.25,251.91 -958.96,1008.95 194.77,-194.77 -207.11,296.71 103.23,-114.27 -14.29,25.33 207.11,-207.76 34.41,-68.18 517.47,-572 248.66,-248.67 978.44,-1066.08 z m -16886.66,-2336.04 -592.78,207.76 -888.84,1095.96 z m 17102.21,592.78 -590.18,797.94 382.42,-383.06 z m -590.18,797.94 -0.66,0.66 h -0.67 v 0.67 l -0.66,0.66 -385.66,296.07 -503.83,680.42 592.77,-591.47 88.95,-177.9 592.13,-503.18 z m -29938.13,594.07 -978.44,295.42 177.9,977.79 -1067.39,118.16 592.78,1066.74 -296.06,-88.95 978.44,977.79 1185.55,-1362.8 2281.51,-799.89 -503.83,-503.83 -1392.02,-177.25 502.53,-118.81 -385.01,-295.42 h -1095.96 z m 27861.14,2961.94 -207.76,207.12 -803.14,875.2 -560.31,487.6 -3378.76,3169.04 118.81,-88.95 -277.88,257.76 751.84,-672.63 885.6,-767.43 714.83,-712.89 681.73,-592.13 888.84,-888.84 296.71,-296.71 592.78,-592.13 z m -5109.04,4907.77 -142.19,127.26 h 5.19 z m -142.19,127.26 h -83.75 l -405.14,299.31 -568.11,484.35 42.85,-142.19 1019.34,-849.24 503.83,-592.12 -385.66,414.87 -1096.61,977.14 -37.65,37.66 37.65,-125.95 -1185.55,1066.08 h -88.95 l -1393.31,1095.96 -1392.67,977.79 -473.96,413.58 -889.49,681.72 1571.21,-1095.3 -1867.92,1391.37 474.61,-207.12 -681.73,503.18 385.02,-296.06 -931.05,697.95 -254.51,101.94 -177.9,177.89 -207.76,118.17 -1571.21,1066.74 -2281.51,1095.95 -88.95,88.95 -207.77,118.17 -15.59,15.59 -246.72,148.03 -33.76,14.3 -14.29,14.29 -2149.71,1288.14 -711.59,296.71 -770.03,592.13 1184.91,-710.94 h 88.95 l 147.38,-62.98 -236.33,181.79 1067.38,-592.77 889.49,-502.53 711.6,-296.07 1363.45,-799.89 296.06,-88.95 -1066.74,681.08 296.07,-177.9 2459.4,-1599.13 v 118.16 l 1275.15,-888.84 414.88,-296.06 5631.7,-4353.95 z m -488.89,299.31 108.42,-92.2 -385.01,296.72 z m 5058.4,-4742.21 -504.48,592.77 504.48,-503.82 z m -27268.36,207.76 -414.88,88.95 592.77,207.11 z m 23414.99,1569.92 -710.95,591.47 503.83,-87.65 207.12,-414.88 z m -46356.03,296.06 -592.78,295.41 414.88,385.02 z m 1095.96,887.54 -1095.96,296.71 -1482.26,-207.76 -978.44,592.78 -681.733,503.82 -296.062,1984.8 -1007.655,177.25 -978.438,207.76 503.826,207.12 v 473.96 l -1600.43,1480.32 v 503.82 l 503.825,-88.94 -503.825,296.06 1304.368,-503.83 651.209,566.16 623.291,-269.45 1273.849,-2280.21 1482.275,-1184.9 889.49,-177.9 1303.72,-1392.02 -295.42,-296.71 384.37,88.95 z m -5661.575,6490.03 -266.198,115.57 296.714,-88.95 z m 49736.085,-4712.35 -592.77,503.83 3.89,-13.63 z m -62065.574,1984.8 -473.961,296.06 h 681.725 z m 9307.172,2161.39 -800.539,385.66 -1185.551,1895.85 -1185.554,177.89 -592.776,1184.91 681.725,118.16 1007.655,-414.87 1363.45,207.76 800.539,888.84 -207.764,-592.78 1185.555,207.12 -177.9,474.61 681.725,296.06 88.95,502.53 207.764,-88.95 977.79,296.06 207.764,-207.11 296.062,503.83 503.829,-118.82 -1985.445,-1361.5 207.116,296.06 -799.892,-118.16 88.298,-296.71 415.528,118.81 -503.826,-414.88 h -88.949 l -592.775,-592.77 385.011,-888.2 977.79,-473.96 -1659.515,-503.82 88.95,-977.79 296.713,-296.06 z m 30706.862,3347.6 118.17,592.77 88.95,-473.96 z m 10196.02,1303.71 -1690.03,976.49 -1985.45,1095.96 -1363.45,770.67 889.49,-473.96 v 14.93 l 1866.63,-1022.59 296.06,-177.25 z m -4149.44,2384.1 -296.71,162.31 91.54,-27.26 -553.17,285.03 -131.15,38.95 -152.58,106.48 -944.02,485.65 h 88.95 l 296.06,-177.25 503.83,-207.76 1061.54,-581.74 35.71,-10.37 v -9.08 l 1066.09,-583.69 -1066.09,548.63 z m -4446.8,2236.05 -503.82,207.77 -79.86,38.3 z m -583.68,246.07 -1312.81,553.83 592.78,-207.12 z m -1994.54,850.54 -1571.21,680.42 770.67,-295.41 z m -1185.55,385.01 -889.49,413.58 681.73,-207.12 z m -12537.9,591.48 -3082.05,296.06 4564.31,-177.89 z m 10847.87,207.12 -2162.69,681.72 1273.2,-385.01 z m -1955.58,503.82 -276.58,118.82 454.48,-118.82 z m -276.58,118.82 -227.25,59.08 -1185.55,414.23 1274.5,-414.23 z m -908.97,473.31 -711.59,88.95 -592.78,207.76 z m -1097.25,177.9 -1185.55,207.76 -592.78,207.11 z m -12152.24,799.89 -385.02,88.94 h 296.07 l 177.9,-88.94 z m 2579.52,296.06 -504.48,88.95 593.42,118.81 385.02,-118.81 z m 977.78,88.95 -681.72,207.76 h 1066.09 v -88.95 z m -16509.441,1303.72 -1067.388,177.9 681.725,207.11 1393.318,-296.06 z m -2963.881,592.78 v 88.29 l 710.942,-88.29 z m 710.942,0 -799.891,177.24 2282.155,-177.24 z"
       style="fill:#f7f7f7;fill-opacity:1;stroke:none;stroke-width:251.27981567;stroke-miterlimit:4;stroke-dasharray:none;stroke-opacity:1" />
    <g
       style="fill:#f7f7f7;fill-opacity:1;stroke:none"
       transform="translate(-2.7292251e-6)"
       id="g4343">
      <polygon
         transform="matrix(0.9881581,0,0,0.9874773,1073.0585,1200.6632)"
         class="fil2"
         points="178782,104592 178872,104082 178992,103572 "
         id="polygon4653"
         style="fill:#f7f7f7;fill-opacity:1;stroke:none" />
      <polygon
         transform="matrix(0.9881581,0,0,0.9874773,1073.0585,1200.6632)"
         class="fil2"
         points="178392,106692 178392,106572 178482,106182 "
         id="polygon4663"
         style="fill:#f7f7f7;fill-opacity:1;stroke:none" />
      <polygon
         transform="matrix(0.9881581,0,0,0.9874773,1073.0585,1200.6632)"
         class="fil2"
         points="178392,106692 178392,106572 178482,106182 "
         id="polygon4675"
         style="fill:#f7f7f7;fill-opacity:1;stroke:none" />
    </g>
    <path
       sodipodi:nodetypes="ccccccccccccccccccccccccccccccccccccccccccccccccccccccccccccccccccccccccccccccccccccccccccccccccccccccccccccccccccccccccccccccccccccccccccccccccccccccccccccccccccccccccccccccccccccccccccccccccccccccccccccccccccccccccccccccccccccccccccccccccccccccccccccccccccccccccccccccccccccccccccccccccccccccccccccccccccccccccccccccccccccccccczcccccccccccccccccccccccccc"
       inkscape:connector-curvature="0"
       id="_125550328"
       d="m 91176.525,2103.152 914.81,49.3439 -114.27,-49.3439 z m 914.81,49.3439 92.845,39.605 h 647.316 z m 740.161,39.605 1445.907,77.9115 -136.346,-77.9115 z m 1445.907,77.9115 70.77,40.2542 1468.631,83.1056 -194.131,-83.1056 h -592.775 z m 1539.401,123.3598 13.63,5.8433 h 88.949 z m 991.423,5.8433 207.764,88.9489 h 385.011 l -473.961,-88.9489 z m 800.539,88.9489 399.948,59.0828 -103.882,-59.0828 h -207.116 z m 399.948,59.0828 103.881,59.0829 h 296.062 z m 399.943,59.0829 478.506,39.605 -92.843,-39.605 z m 478.506,39.605 114.27,49.344 h 473.967 z m 707.047,49.344 296.715,88.9489 -207.765,-88.9489 z m 889.5,88.9489 115.57,17.5299 -26.63,-17.5299 z m 115.57,17.5299 151.28,100.6357 h 414.88 l 177.89,88.9489 h 414.88 l 176.6,37.6574 -87.65,-37.6572 z m 1335.53,227.2418 120.11,51.2918 h 88.95 33.11 z m 242.18,51.2918 146.73,31.1646 -179.85,-31.1646 385.02,118.815 h 207.76 l 592.13,88.2996 -206.47,-88.2996 h -296.71 l -157.77,-27.269 -227.89,-91.5459 z m 1151.79,207.1146 612.25,68.1725 -227.24,-68.1725 z m 612.25,68.1725 69.47,20.7764 h -177.89 l 681.72,118.815 h -978.44 l 413.58,62.3292 -116.86,26.6197 250.61,45.4484 -43.5,43.5007 -503.83,-88.9489 978.44,177.2486 -681.72,-88.2997 -296.72,-88.9489 -296.06,88.9489 -681.08,-88.9489 1362.8,473.9614 2286.7,790.1521 -3.89,9.0898 h 29.89 l 858.97,296.7127 682.38,503.1783 710.94,177.8978 -592.78,-88.9489 1570.57,1184.9035 -592.13,88.9489 592.13,503.1783 592.78,592.7763 -414.88,414.2294 -1777.69,177.8978 -1364.09,1007.0061 -77.26,777.1674 -40.91,-7.141 40.25,12.336 -40.25,402.543 3259.95,3850.125 v 88.949 l -88.95,385.012 88.95,35.71 v 2452.263 l 2193.21,3850.774 889.48,1865.98 v 888.84 h -711.59 l 296.71,1569.267 h 503.83 l 1274.5,1184.904 3259.95,414.878 2668.47,1362.152 2785.33,710.942 4327.34,-118.165 1482.26,-385.013 -88.95,-88.949 c -1463.8,-943.978 -1514.06,-725.727 0,-29.865 l 111.67,112.323 688.87,-201.271 1571.22,118.815 1149.19,-886.244 124.01,86.352 -15.59,-170.106 431.11,-333.072 h -207.76 l -295.42,-473.961 4149.44,1184.903 799.89,-1184.903 -592.78,-1688.731 296.71,-503.178 177.9,296.063 1984.8,710.942 978.43,-118.815 3852.73,2073.744 h 296.71 l 1304.37,207.114 -118.82,-1184.903 415.53,207.764 -118.81,-888.84 503.82,88.949 -681.72,-799.891 -296.72,-385.013 -207.11,-977.139 296.06,88.949 -296.06,-207.764 h 503.83 l -889.49,-977.14 681.72,88.949 1097.26,414.229 177.9,177.898 1007.65,710.942 -296.06,-296.063 681.72,592.127 2578.22,1865.979 2667.82,2576.922 -118.82,-207.115 -177.89,-88.948 -118.17,-207.115 -1778.97,-1777.68 -177.9,-88.3 -118.82,-207.764 -177.25,-88.948 -1303.72,-1303.07 -177.9,-88.949 -592.77,-592.127 -207.76,-88.949 -88.95,-207.114 -207.12,-88.949 -296.71,-296.064 -30.52,-17.529 -58.43,-101.285 v 68.173 l -118.81,-68.173 -88.31,-177.898 -385.65,-207.114 -118.82,-207.115 -177.9,-88.949 c -1204.19,-1025.027 -2144.69,-1784.713 -3378.1,-2754.821 -3988.29,-3161.15 -7885.93,-5285.492 -10968.03,-7226.941 l -5926.46,-2961.934 c -2002.64,-793.0189 -7017.07,-3057.8584 -13130.67,-4738.9653 -3049.93,-839.0317 -5574.58,-1346.1431 -8299.52,-1954.9285 h -207.76 l -177.9,-118.815 h -207.76 -88.95 z M 153035,29263.739 l 264.24,239.578 -86.35,-150.629 z m 264.24,239.578 31.82,56.485 66.22,33.113 z m 98.04,89.598 165.57,150.628 -53.89,-94.792 z m 165.57,150.628 64.92,112.972 131.8,65.576 z m 196.72,178.548 68.82,62.329 -22.74,-39.605 z m 68.82,62.329 96.09,168.159 296.07,296.063 88.95,177.898 207.76,118.166 88.95,177.898 207.11,118.165 88.95,177.898 170.11,96.74 -81.16,-96.74 -977.79,-1066.088 z m 1243.99,1330.987 61.68,72.718 -24.03,-51.292 z m 61.68,72.718 153.87,334.37 198.03,84.404 z m 351.9,418.774 14.29,17.528 -5.85,-13.636 z m 14.29,17.528 83.11,194.13 125.3,53.889 z m 208.41,248.019 137.65,163.614 -55.19,-128.554 z m 137.65,163.614 33.76,78.56 201.92,201.921 z m 235.68,280.481 125.96,149.979 -31.81,-55.836 z m 125.96,149.979 87,151.928 70.12,34.411 z m 157.12,186.339 602.51,717.434 -79.85,-159.718 -296.72,-296.064 -118.16,-207.764 z m 602.51,717.434 9.11,18.181 38.31,38.306 z m 47.4,56.486 301.91,359.042 -43.5,-101.285 z m 301.91,359.042 45.45,105.83 68.17,29.216 z m 113.62,135.047 49.99,59.732 h 88.95 z m -28796.08,-5070.738 -22.74,6.492 h 29.22 z m -18963,-21526.939 177.9,88.9488 h 207.76 l 207.11,118.1659 -207.11,-88.2997 h -207.76 z m 35241.95,15994.576 414.88,503.178 -118.81,-296.064 -88.95,-207.114 z m 3764.42,5834.919 296.72,385.012 v -296.063 z m 977.79,1184.904 296.07,385.012 118.81,-88.949 z m -770.02,1865.979 -889.49,118.166 -296.06,1777.031 -1601.08,-296.064 -681.73,296.064 -296.71,2251.638 682.37,1184.255 2371.11,1895.847 5157.09,-1007.007 296.71,-385.011 474.61,296.062 296.07,-799.891 296.71,296.713 v 503.178 l 503.82,207.764 206.47,-1599.782 -503.18,-1066.089 h 88.95 l -681.72,-503.825 -88.95,503.825 -711.59,-503.825 -296.07,-503.178 v 414.228 l -296.71,-296.065 h -473.96 l 88.95,-207.112 -593.43,-207.764 88.95,296.713 -385.01,-296.713 207.11,-88.3 -592.78,-385.661 -118.16,177.897 -296.71,-385.012 z m 8387.82,14216.893 296.06,799.891 88.95,-296.062 -296.06,-503.829 z m 1986.09,2369.808 385.01,414.88 v -414.88 z"
       style="fill:#f7f7f7;fill-opacity:1;stroke:none;stroke-width:403.30410767;stroke-miterlimit:4;stroke-dasharray:none;stroke-opacity:1" />
    <path
       sodipodi:nodetypes="ccccccccccccccccccccccccccccccccccccccccccccccccccccccccccccccccccccccccccccccccccccccccccccccccccccccccccccccccccccccccccccccccccccccccccccccccccccccccccccccccccccccccccccccccccccccccccccccccccccccccccccccccccccccccccccccccccccccccccccccccccccccccccccccccccccccccccccccccccccccccccccccccccccccccccccccccccccccccccccccccccccccccccccccccccccccccccccccccccc"
       inkscape:connector-curvature="0"
       id="_125481304"
       d="m 40264.444,18883.519 -503.825,177.249 -1867.279,1392.667 -1778.33,977.14 -1896.495,1303.069 -2667.819,2250.992 -1274.501,1184.904 -1482.266,1688.731 v -207.764 l 385.662,-473.961 -88.949,88.949 -385.662,207.763 -503.828,592.128 h -88.948 l -207.115,177.897 -1986.093,1984.146 -681.726,799.891 c -502.315,592.353 -614.969,703.126 0,88.949 -2170.749,2286.302 -5106.513,5724.227 -8298.869,10277.821 -3473.462,5373.167 -7394.9662,12587.83 -9828.5328,20188.157 l -41.5528,41.552 c -685.2578,2457.044 -1540.2763,4999.004 -2075.0419,7286.67 v -177.899 c -612.6986,3138.222 -217.154,1125.81 -799.8911,3435.896 -20.07,238.397 -54.15,474.657 -88.9488,710.942 l -207.7639,977.142 c -42.693,265.644 -69.6489,532.755 -88.949,799.891 v 385.011 l 88.949,-207.116 v 325.93 l -207.1141,2073.099 296.0636,-414.88 v 503.829 l 414.8786,-1569.917 -207.1147,-207.112 207.1147,177.247 v -88.949 l 592.7764,-1184.255 592.7764,-888.84 592.7763,-592.128 1186.2023,-1658.863 88.2997,385.011 385.6617,-503.825 592.7763,-977.142 2371.1061,-4738.966 1096.604,-1273.852 889.489,177.899 799.891,414.877 770.674,1480.968 1304.368,385.014 1867.278,2576.273 799.891,88.946 88.949,88.95 207.764,681.725 2460.055,1007.006 2371.105,3139.183 v 710.942 l 2163.991,296.065 1185.553,1480.968 710.942,-414.232 88.949,414.232 v -1007.007 l 296.713,-385.011 -88.949,-385.015 296.064,888.84 385.661,-503.825 296.064,296.062 -296.064,296.713 385.013,-207.764 -177.898,296.714 889.489,710.293 473.962,-296.065 207.764,770.026 592.776,-681.077 175.301,580.439 -472.014,-165.559 88.949,681.073 394.752,-478.505 198.024,656.404 415.528,-681.725 -118.815,799.891 296.713,177.896 v -473.961 l 799.891,888.841 -503.827,88.301 -20.777,136.995 -157.121,366.831 -207.115,-414.88 88.949,414.88 -296.713,296.065 v 385.012 l 296.713,-503.178 296.064,414.228 11.036,91.546 403.841,86.353 177.898,-681.077 592.776,-88.949 118.815,681.077 177.899,-592.128 v 888.19 l 207.114,-977.139 592.777,-414.88 -296.064,414.88 503.828,-118.166 -711.592,1184.254 711.592,-681.077 88.948,592.128 207.115,-207.113 681.725,592.127 -88.946,-473.312 681.725,-118.815 -296.066,592.127 503.83,-88.301 385.011,-88.95 -385.011,799.891 385.011,-710.941 592.775,296.065 -385.011,-592.778 385.011,-88.298 v 681.076 207.113 l 385.663,-385.012 503.826,385.012 681.729,-296.062 -474.613,-88.95 474.613,-118.166 h -592.779 l 503.829,-592.775 -592.779,592.775 -296.71,-592.775 385.66,414.879 503.829,-503.829 681.725,681.725 503.826,592.127 206.467,-294.765 89.598,116.869 503.826,-414.231 h -118.166 -296.71 l -177.9,-1066.736 -296.061,977.786 293.465,383.715 -590.179,-294.765 385.66,-1184.903 681.725,118.167 414.879,681.725 -414.879,-207.764 v 592.775 l 1007.658,-770.023 -1304.368,-888.841 -88.95,-1777.029 503.826,-710.945 -1007.655,207.116 -296.062,503.829 207.116,-592.779 -681.077,177.899 -711.593,-1480.968 v -473.961 l -889.489,-799.891 -473.961,-2280.21 -711.593,-473.961 -681.725,888.192 -1392.667,385.012 -474.611,-1095.953 296.713,-1658.219 -1185.553,-888.837 -118.815,-1392.019 -681.725,503.826 207.764,-710.941 473.961,-88.95 v -592.775 l -592.776,-207.116 v 1007.007 l -681.726,385.011 -1185.552,-799.242 977.788,-977.787 504.477,-1688.084 -1393.316,-977.787 296.063,-296.065 -770.674,88.95 978.438,-1184.903 503.828,-1273.204 681.725,-1688.731 207.764,-1273.204 -296.713,-1688.732 -503.828,-296.062 -681.725,503.178 -414.878,-592.127 -1660.164,977.79 -888.84,-888.841 681.725,414.88 799.891,-296.714 1482.266,-1480.967 1274.502,-2280.211 88.949,-2665.87 -592.777,-1095.953 118.815,-2073.095 h -415.528 l 889.49,-473.961 -177.898,2547.056 385.662,-1865.979 -88.949,-1480.968 -118.815,-799.891 414.878,-1480.968 -414.878,-1066.088 -770.674,-118.815 v -977.142 l -414.879,296.066 503.827,-503.178 207.764,-1066.74 770.674,-1688.08 1007.655,-977.79 592.777,-1480.316 888.84,-799.892 385.662,-681.725 88.949,88.948 1096.603,-977.139 -88.946,-296.064 888.84,-1184.903 -296.065,-207.115 592.775,-1865.979 88.95,-296.713 -296.714,-799.242 503.83,-888.84 -888.841,-2369.807 88.95,-296.064 h 296.061 l 503.83,-503.178 1778.329,-2754.82 1274.5,-1688.082 v -473.961 z m -710.941,61489.677 -592.775,-385.011 414.876,385.011 -296.062,-88.95 -207.764,592.128 888.841,296.065 z m -7398.993,-590.179 -11.036,-2.66 18.18,59.082 z m 7.141,56.485 100.635,829.759 385.012,-296.065 -296.063,88.301 z m 12134.062,-13091.074 118.817,503.18 -800.542,296.062 592.778,385.012 503.826,-1066.088 z m -88.947,1184.254 v 888.84 l 385.66,-177.895 -88.95,-503.181 88.95,-385.012 z m -503.829,-88.946 -473.961,592.775 -296.713,592.127 681.725,-296.065 -385.012,503.181 385.012,-296.065 -88.95,888.84 385.663,-888.84 z m 1007.655,7019.82 -1985.445,1658.867 -1778.978,207.116 -296.062,1569.914 681.725,296.065 414.88,-888.192 473.961,888.192 889.489,-681.077 207.764,385.012 -504.478,-88.95 207.764,385.015 -977.79,799.891 770.026,-503.181 -88.301,592.127 -385.66,-88.946 88.95,1095.953 1393.315,-2784.036 681.724,-1362.802 z m -888.84,2843.77 -296.714,1392.018 681.728,-296.062 -385.014,-88.95 177.899,-503.829 296.062,207.764 592.778,-710.941 -1066.739,592.127 z M 4104.4342,75426.467 h 88.9489 v 29.885 h -88.9489 z m 23711.7058,1095.956 -207.764,592.127 385.662,296.714 1007.655,710.941 177.898,-503.829 -88.949,-592.127 z m 13722.808,2191.909 385.66,592.128 503.829,-503.178 z m 681.725,770.023 -592.779,414.88 415.528,177.248 z m -5631.054,88.95 v 29.851 l -44.149,146.732 -7.147,-5.186 z m -59.729,198.027 9.075,1.33 -38.308,126.606 -88.947,177.248 88.947,-207.113 z m -1807.548,423.968 -592.776,88.946 385.012,385.015 z m 6609.49,88.946 -770.674,592.128 296.062,681.076 474.612,-296.062 -88.949,-473.961 207.115,385.012 z m -770.674,592.128 -1185.554,1184.905 681.725,-503.829 z m -5838.816,-385.012 681.726,385.012 -177.898,592.778 770.674,-207.764 -592.776,-681.076 799.892,592.127 -88.95,-592.127 z m 1481.618,770.026 -88.95,414.877 385.66,88.949 z"
       style="fill:#f7f7f7;fill-opacity:1;stroke:none;stroke-width:0.98781604" />
  </g>
</svg>
