<?xml version="1.0" encoding="UTF-8" standalone="no"?>
<!DOCTYPE svg PUBLIC "-//W3C//DTD SVG 1.1//EN" "http://www.w3.org/Graphics/SVG/1.1/DTD/svg11.dtd">
<svg width="100%" height="100%" viewBox="0 0 50 50" version="1.1" xmlns="http://www.w3.org/2000/svg" xmlns:xlink="http://www.w3.org/1999/xlink" xml:space="preserve" xmlns:serif="http://www.serif.com/" style="fill-rule:evenodd;clip-rule:evenodd;stroke-linejoin:round;stroke-miterlimit:2;">
    <g transform="matrix(1,0,0,1,-308.016,-119.559)">
        <g transform="matrix(1,0,0,1,308.016,119.559)">
            <circle cx="25" cy="25" r="25" style="fill:url(#_Linear1);"/>
        </g>
        <g transform="matrix(1,0,0,1,308.016,119.559)">
            <path d="M39.647,18.24C40.521,18.24 41.223,18.959 41.223,19.854L41.223,30.539C41.223,31.433 40.521,32.153 39.647,32.153C38.774,32.153 38.071,31.433 38.071,30.539L38.071,19.854C38.071,18.959 38.795,18.24 39.647,18.24Z" style="fill:white;fill-rule:nonzero;"/>
        </g>
        <g transform="matrix(1,0,0,1,308.016,119.559)">
            <path d="M34.558,24.978L34.451,24.978L34.409,24.978L34.366,24.978L32.811,24.978C31.981,24.978 31.235,25.633 31.193,26.483C31.129,27.421 31.853,28.206 32.769,28.206C32.939,28.206 33.045,28.38 33.003,28.533C32.854,28.991 32.513,29.362 32.045,29.471C31.597,29.58 31.129,29.645 30.639,29.645C29.787,29.645 29.02,29.449 28.36,29.078C27.7,28.707 27.167,28.184 26.805,27.508C26.422,26.832 26.252,26.069 26.252,25.196C26.252,24.324 26.443,23.539 26.805,22.863C27.189,22.187 27.7,21.664 28.381,21.293C29.063,20.922 29.83,20.748 30.682,20.748C31.683,20.748 32.577,21.031 33.344,21.576C33.834,21.925 34.515,21.925 35.005,21.533C35.75,20.944 35.708,19.788 34.941,19.243C34.579,19.003 34.196,18.785 33.77,18.611C32.79,18.196 31.725,18 30.532,18C29.105,18 27.828,18.305 26.699,18.916C25.57,19.527 24.676,20.377 24.037,21.467C23.398,22.558 23.078,23.801 23.078,25.175C23.078,26.549 23.398,27.792 24.037,28.882C24.676,29.972 25.549,30.823 26.677,31.433C27.806,32.044 29.063,32.349 30.49,32.349C31.47,32.349 32.449,32.197 33.408,31.891L33.429,31.891C34.941,31.412 35.963,29.951 35.963,28.337L35.963,26.374C35.942,25.611 35.324,24.978 34.558,24.978Z" style="fill:white;fill-rule:nonzero;"/>
        </g>
        <g transform="matrix(1,0,0,1,308.016,119.559)">
            <path d="M21.459,19.832L21.459,30.561C21.459,31.433 20.756,32.153 19.905,32.153L19.606,32.153C19.138,32.153 18.712,31.935 18.414,31.564L13.26,25.131C12.876,24.651 12.11,24.935 12.11,25.545L12.11,30.561C12.11,31.433 11.407,32.153 10.555,32.153C9.703,32.153 9,31.433 9,30.561L9,19.832C9,18.959 9.703,18.24 10.555,18.24L10.874,18.24C11.343,18.24 11.79,18.458 12.067,18.828L17.2,25.262C17.583,25.741 18.35,25.458 18.35,24.847L18.35,19.832C18.35,18.959 19.053,18.24 19.905,18.24C20.756,18.24 21.459,18.959 21.459,19.832Z" style="fill:white;fill-rule:nonzero;"/>
        </g>
    </g>
    <defs>
        <linearGradient id="_Linear1" x1="0" y1="0" x2="1" y2="0" gradientUnits="userSpaceOnUse" gradientTransform="matrix(-54.7604,27.2469,-27.2469,-54.7604,40.4281,-9.34413)"><stop offset="0" style="stop-color:rgb(255,219,106);stop-opacity:1"/><stop offset="0" style="stop-color:rgb(255,219,106);stop-opacity:1"/><stop offset="1" style="stop-color:rgb(0,156,142);stop-opacity:1"/></linearGradient>
    </defs>
</svg>
