<?xml version="1.0" encoding="UTF-8" standalone="no"?>
<!DOCTYPE svg PUBLIC "-//W3C//DTD SVG 1.1//EN" "http://www.w3.org/Graphics/SVG/1.1/DTD/svg11.dtd">
<svg width="100%" height="100%" viewBox="0 0 227 51" version="1.1" xmlns="http://www.w3.org/2000/svg" xmlns:xlink="http://www.w3.org/1999/xlink" xml:space="preserve" xmlns:serif="http://www.serif.com/" style="fill-rule:evenodd;clip-rule:evenodd;stroke-linejoin:round;stroke-miterlimit:2;">
    <g transform="matrix(1,0,0,1,-10.8692,-21.6755)">
        <g transform="matrix(1,0,0,1,10.8692,21.6755)">
            <path d="M97.32,23.394L92.859,18.876C92.172,18.173 91.78,17.169 91.78,16.165L91.78,5.572C91.78,2.51 89.329,0 86.338,0L5.442,0C2.451,0 0,2.51 0,5.572L0,44.478C0,47.54 2.451,50.05 5.442,50.05L86.338,50.05C89.329,50.05 91.78,47.54 91.78,44.478L91.78,35.291C91.78,34.287 92.172,33.283 92.859,32.58L97.32,28.012C98.546,26.757 98.546,24.699 97.32,23.394Z" style="fill:url(#_Linear1);fill-rule:nonzero;"/>
        </g>
        <g transform="matrix(1,0,0,1,10.8692,21.6755)">
            <path d="M79.327,8.986C81.337,8.986 82.955,10.643 82.955,12.701L82.955,37.299C82.955,39.357 81.337,41.014 79.327,41.014C77.317,41.014 75.699,39.357 75.699,37.299L75.699,12.701C75.699,10.643 77.317,8.986 79.327,8.986Z" style="fill:white;fill-rule:nonzero;"/>
        </g>
        <g transform="matrix(1,0,0,1,10.8692,21.6755)">
            <path d="M67.61,24.498L67.365,24.498L67.266,24.498L67.168,24.498L63.589,24.498C61.677,24.498 59.961,26.004 59.863,27.962C59.716,30.121 61.383,31.928 63.491,31.928C63.884,31.928 64.129,32.329 64.031,32.681C63.687,33.735 62.903,34.588 61.824,34.839C60.795,35.09 59.716,35.241 58.589,35.241C56.627,35.241 54.862,34.789 53.343,33.936C51.823,33.082 50.597,31.878 49.764,30.321C48.881,28.765 48.489,27.008 48.489,25C48.489,22.992 48.93,21.185 49.764,19.629C50.646,18.072 51.823,16.868 53.392,16.014C54.96,15.161 56.725,14.759 58.687,14.759C60.991,14.759 63.05,15.412 64.815,16.667C65.943,17.47 67.512,17.47 68.639,16.566C70.355,15.211 70.257,12.55 68.492,11.295C67.659,10.743 66.776,10.241 65.796,9.839C63.54,8.886 61.089,8.434 58.343,8.434C55.059,8.434 52.117,9.137 49.518,10.542C46.92,11.948 44.861,13.906 43.39,16.416C41.919,18.926 41.184,21.787 41.184,24.95C41.184,28.113 41.919,30.974 43.39,33.484C44.861,35.994 46.871,37.952 49.469,39.357C52.068,40.763 54.96,41.466 58.196,41.466C60.452,41.466 62.707,41.115 64.962,40.412L65.011,40.412C68.492,39.307 70.845,35.944 70.845,32.229L70.845,27.711C70.796,25.954 69.375,24.498 67.61,24.498Z" style="fill:white;fill-rule:nonzero;"/>
        </g>
        <g transform="matrix(1,0,0,1,10.8692,21.6755)">
            <path d="M37.457,12.651L37.457,37.349C37.457,39.357 35.839,41.014 33.878,41.014L33.191,41.014C32.113,41.014 31.132,40.512 30.446,39.659L18.581,24.849C17.699,23.745 15.934,24.398 15.934,25.803L15.934,37.349C15.934,39.357 14.316,41.014 12.354,41.014C10.393,41.014 8.775,39.357 8.775,37.349L8.775,12.651C8.775,10.643 10.393,8.986 12.354,8.986L13.09,8.986C14.169,8.986 15.198,9.488 15.835,10.341L27.651,25.151C28.534,26.255 30.299,25.602 30.299,24.197L30.299,12.651C30.299,10.643 31.917,8.986 33.878,8.986C35.839,8.986 37.457,10.643 37.457,12.651Z" style="fill:white;fill-rule:nonzero;"/>
        </g>
        <g transform="matrix(1,0,0,1,10.8692,21.6755)">
            <path d="M114.137,20.231L114.137,23.143L119.138,23.143L119.138,25.201L114.137,25.201L114.137,29.217L111.637,29.217L111.637,18.173L119.824,18.173L119.824,20.231L114.137,20.231Z" style="fill:rgb(111,154,168);fill-rule:nonzero;"/>
        </g>
        <g transform="matrix(1,0,0,1,10.8692,21.6755)">
            <path d="M125.658,23.695C125.658,20.382 128.159,17.972 131.591,17.972C134.973,17.972 137.523,20.382 137.523,23.695C137.523,27.008 135.023,29.418 131.591,29.418C128.159,29.418 125.658,27.008 125.658,23.695ZM134.924,23.695C134.924,21.586 133.454,20.131 131.542,20.131C129.629,20.131 128.159,21.586 128.159,23.695C128.159,25.803 129.629,27.259 131.542,27.259C133.503,27.259 134.924,25.803 134.924,23.695Z" style="fill:rgb(111,154,168);fill-rule:nonzero;"/>
        </g>
        <g transform="matrix(1,0,0,1,10.8692,21.6755)">
            <path d="M151.202,29.217L149.094,26.155L148.947,26.155L146.789,26.155L146.789,29.217L144.289,29.217L144.289,18.173L148.947,18.173C151.839,18.173 153.653,19.729 153.653,22.189C153.653,23.845 152.82,25.05 151.447,25.703L153.849,29.267L151.202,29.267L151.202,29.217ZM148.849,20.231L146.789,20.231L146.789,24.096L148.849,24.096C150.369,24.096 151.153,23.394 151.153,22.189C151.153,20.984 150.369,20.231 148.849,20.231Z" style="fill:rgb(111,154,168);fill-rule:nonzero;"/>
        </g>
        <g transform="matrix(1,0,0,1,10.8692,21.6755)">
            <path d="M176.941,18.173L173.411,29.217L170.715,29.217L168.312,21.737L165.861,29.217L163.214,29.217L159.684,18.173L162.282,18.173L164.733,25.954L167.283,18.173L169.587,18.173L172.039,26.004L174.539,18.173L176.941,18.173Z" style="fill:rgb(111,154,168);fill-rule:nonzero;"/>
        </g>
        <g transform="matrix(1,0,0,1,10.8692,21.6755)">
            <path d="M190.033,26.857L185.032,26.857L184.051,29.217L181.502,29.217L186.307,18.173L188.758,18.173L193.612,29.217L190.964,29.217L190.033,26.857ZM189.248,24.9L187.532,20.683L185.816,24.9L189.248,24.9Z" style="fill:rgb(111,154,168);fill-rule:nonzero;"/>
        </g>
        <g transform="matrix(1,0,0,1,10.8692,21.6755)">
            <path d="M206.555,29.217L204.447,26.155L204.3,26.155L202.143,26.155L202.143,29.217L199.643,29.217L199.643,18.173L204.3,18.173C207.193,18.173 209.007,19.729 209.007,22.189C209.007,23.845 208.173,25.05 206.801,25.703L209.203,29.267L206.555,29.267L206.555,29.217ZM204.202,20.231L202.143,20.231L202.143,24.096L204.202,24.096C205.722,24.096 206.506,23.394 206.506,22.189C206.506,20.984 205.771,20.231 204.202,20.231Z" style="fill:rgb(111,154,168);fill-rule:nonzero;"/>
        </g>
        <g transform="matrix(1,0,0,1,10.8692,21.6755)">
            <path d="M215.967,18.173L220.87,18.173C224.4,18.173 226.851,20.331 226.851,23.695C226.851,27.058 224.449,29.217 220.87,29.217L215.967,29.217L215.967,18.173ZM220.772,27.108C222.929,27.108 224.302,25.803 224.302,23.695C224.302,21.586 222.88,20.281 220.772,20.281L218.467,20.281L218.467,27.108L220.772,27.108Z" style="fill:rgb(111,154,168);fill-rule:nonzero;"/>
        </g>
        <g transform="matrix(1,0,0,1,10.8692,21.6755)">
            <path d="M5.442,0C2.451,0 0,2.51 0,5.572L0,44.478C0,47.54 2.451,50.05 5.442,50.05L86.338,50.05C89.329,50.05 91.78,47.54 91.78,44.478L91.78,35.291C91.78,34.287 92.172,33.283 92.859,32.58L97.32,28.012C98.546,26.757 98.546,24.649 97.32,23.394L92.859,18.876C92.172,18.173 91.731,17.169 91.731,16.165L91.731,5.572C91.731,2.51 89.28,0 86.289,0L5.442,0Z" style="fill:url(#_Linear2);fill-rule:nonzero;"/>
        </g>
        <g transform="matrix(1,0,0,1,10.8692,21.6755)">
            <path d="M79.327,8.986C81.337,8.986 82.955,10.643 82.955,12.701L82.955,37.299C82.955,39.357 81.337,41.014 79.327,41.014C77.317,41.014 75.699,39.357 75.699,37.299L75.699,12.701C75.699,10.643 77.366,8.986 79.327,8.986Z" style="fill:white;fill-rule:nonzero;"/>
        </g>
        <g transform="matrix(1,0,0,1,10.8692,21.6755)">
            <path d="M67.61,24.498L67.365,24.498L67.266,24.498L67.168,24.498L63.589,24.498C61.677,24.498 59.961,26.004 59.863,27.962C59.716,30.121 61.383,31.928 63.491,31.928C63.884,31.928 64.129,32.329 64.031,32.681C63.687,33.735 62.903,34.588 61.824,34.839C60.795,35.09 59.716,35.241 58.589,35.241C56.627,35.241 54.862,34.789 53.343,33.936C51.823,33.082 50.597,31.878 49.764,30.321C48.881,28.765 48.489,27.008 48.489,25C48.489,22.992 48.93,21.185 49.764,19.629C50.646,18.072 51.823,16.868 53.392,16.014C54.96,15.161 56.725,14.759 58.687,14.759C60.991,14.759 63.05,15.412 64.815,16.667C65.943,17.47 67.512,17.47 68.639,16.566C70.355,15.211 70.257,12.55 68.492,11.295C67.659,10.743 66.776,10.241 65.796,9.839C63.54,8.886 61.089,8.434 58.343,8.434C55.059,8.434 52.117,9.137 49.518,10.542C46.92,11.948 44.861,13.906 43.39,16.416C41.919,18.926 41.184,21.787 41.184,24.95C41.184,28.113 41.919,30.974 43.39,33.484C44.861,35.994 46.871,37.952 49.469,39.357C52.068,40.763 54.96,41.466 58.245,41.466C60.501,41.466 62.756,41.115 64.962,40.412L65.011,40.412C68.492,39.307 70.846,35.944 70.846,32.229L70.846,27.711C70.796,25.954 69.375,24.498 67.61,24.498Z" style="fill:white;fill-rule:nonzero;"/>
        </g>
        <g transform="matrix(1,0,0,1,10.8692,21.6755)">
            <path d="M37.457,12.651L37.457,37.349C37.457,39.357 35.839,41.014 33.878,41.014L33.191,41.014C32.113,41.014 31.132,40.512 30.446,39.659L18.581,24.849C17.699,23.745 15.934,24.398 15.934,25.803L15.934,37.349C15.934,39.357 14.316,41.014 12.354,41.014C10.393,41.014 8.775,39.357 8.775,37.349L8.775,12.651C8.775,10.643 10.393,8.986 12.354,8.986L13.09,8.986C14.169,8.986 15.198,9.488 15.835,10.341L27.651,25.151C28.534,26.255 30.299,25.602 30.299,24.197L30.299,12.651C30.299,10.643 31.917,8.986 33.878,8.986C35.839,8.986 37.457,10.643 37.457,12.651Z" style="fill:white;fill-rule:nonzero;"/>
        </g>
    </g>
    <defs>
        <linearGradient id="_Linear1" x1="0" y1="0" x2="1" y2="0" gradientUnits="userSpaceOnUse" gradientTransform="matrix(-69.9408,66.38,-66.38,-69.9408,80.0607,-9.01)"><stop offset="0" style="stop-color:rgb(0,175,188);stop-opacity:1"/><stop offset="1" style="stop-color:rgb(32,83,116);stop-opacity:1"/></linearGradient>
        <linearGradient id="_Linear2" x1="0" y1="0" x2="1" y2="0" gradientUnits="userSpaceOnUse" gradientTransform="matrix(-68.7014,67.0961,-67.0961,-68.7014,79.4328,-9.35351)"><stop offset="0" style="stop-color:rgb(255,219,106);stop-opacity:1"/><stop offset="0" style="stop-color:rgb(255,219,106);stop-opacity:1"/><stop offset="1" style="stop-color:rgb(0,156,142);stop-opacity:1"/></linearGradient>
    </defs>
</svg>
