<?xml version="1.0" encoding="UTF-8" standalone="no"?>
<!-- Generator: Adobe Illustrator 23.0.4, SVG Export Plug-In . SVG Version: 6.00 Build 0)  -->

<svg
   xmlns:dc="http://purl.org/dc/elements/1.1/"
   xmlns:cc="http://creativecommons.org/ns#"
   xmlns:rdf="http://www.w3.org/1999/02/22-rdf-syntax-ns#"
   xmlns:svg="http://www.w3.org/2000/svg"
   xmlns="http://www.w3.org/2000/svg"
   xmlns:sodipodi="http://sodipodi.sourceforge.net/DTD/sodipodi-0.dtd"
   xmlns:inkscape="http://www.inkscape.org/namespaces/inkscape"
   version="1.1"
   id="Layer_1"
   x="0px"
   y="0px"
   viewBox="0 0 263.10001 142.86999"
   xml:space="preserve"
   sodipodi:docname="Logo.Black.NoText.svg"
   width="263.10001"
   height="142.87"
   inkscape:version="0.92.4 (5da689c313, 2019-01-14)"><metadata
   id="metadata61"><rdf:RDF><cc:Work
       rdf:about=""><dc:format>image/svg+xml</dc:format><dc:type
         rdf:resource="http://purl.org/dc/dcmitype/StillImage" /><dc:title></dc:title></cc:Work></rdf:RDF></metadata><defs
   id="defs59" /><sodipodi:namedview
   pagecolor="#ffffff"
   bordercolor="#666666"
   borderopacity="1"
   objecttolerance="10"
   gridtolerance="10"
   guidetolerance="10"
   inkscape:pageopacity="0"
   inkscape:pageshadow="2"
   inkscape:window-width="1280"
   inkscape:window-height="736"
   id="namedview57"
   showgrid="false"
   fit-margin-left="-0.2"
   fit-margin-top="0"
   fit-margin-right="0"
   fit-margin-bottom="0"
   inkscape:zoom="0.327"
   inkscape:cx="120.59511"
   inkscape:cy="73.194997"
   inkscape:window-x="0"
   inkscape:window-y="0"
   inkscape:window-maximized="1"
   inkscape:current-layer="Layer_1" />
<style
   type="text/css"
   id="style2">
	.st0{fill:#1D1E1B;}
</style>


















<circle
   cx="250.14"
   cy="12.96"
   r="12.96"
   id="circle40" />
<path
   d="m 139.63,90.050001 c 1.37,-5.13 2.17,-10.47 2.35,-15.98 -16.93,9.78 -27.15,25.55 -33.07,38.569999 -5.3,-7.52 -9.17,-16.089999 -11.25,-25.359999 3.07,-8.94 13.06,-30.14 40.48,-38.77 -1.28,-3.72 -2.8,-7.32 -4.66,-10.73 -18.41,6.04 -30.01,16.88 -37.24,27.05 1.73,-17.96 10.13,-33.97 22.7,-45.52 C 106.3,7.700001 89.48,0.56000095 70.95,0.56000095 31.66,0.56000095 -0.2,32.410001 -0.2,71.710001 -0.2,111.01 31.66,142.86 70.95,142.86 c 18.56,0 35.4,-7.16 48.07,-18.8 -0.53,-0.49 -1.1,-0.94 -1.61,-1.44 3.9,-9.85 10.8,-22.879999 22.22,-32.569999 z"
   id="path42"
   inkscape:connector-curvature="0" />
<path
   d="m 141.98,74.070001 c 5.81,-3.35 12.39,-6.01 19.88,-7.59 39.88,-8.45 53,-28.94 57.23,-43.18 -5.48,-5.89 -11.91,-10.86 -19.1,-14.62 -7.71,14.41 -23.45,30.97 -55.64,38.15 -2.17,0.48 -4.23,1.05 -6.21,1.68 2.52,7.28 3.95,15.07 3.95,23.21 0.01,0.79 -0.08,1.56 -0.11,2.35 z"
   id="path44"
   inkscape:connector-curvature="0" />
<path
   d="m 183.78,97.100001 c 38.49,-7.13 49.85,-27.1 53.21,-38.31 -1.64,-8.94 -4.96,-17.27 -9.61,-24.7 -7.19,16.31 -24.03,35.47 -63.1,43.75 -9.94,2.1 -18.04,6.6 -24.64,12.21 C 136.1,103.32 128.85,115.04 119.03,124.06 c 5.69,5.22 12.18,9.56 19.34,12.73 5.15,-14.28 17.3,-34.48 45.41,-39.689999 z"
   id="path46"
   inkscape:connector-curvature="0" />
<path
   d="m 185.9,108.53 c -22.83,4.23 -32.57,20.43 -36.69,31.99 5.72,1.48 11.68,2.35 17.85,2.35 35.91,0 65.53,-26.63 70.38,-61.209999 -8.62,10.36 -24.05,21.769999 -51.54,26.869999 z"
   id="path48"
   inkscape:connector-curvature="0" />
<path
   d="m 133.5,37.770001 c 2.64,-0.86 5.41,-1.63 8.34,-2.28 27.56,-6.14 41.02,-19.57 47.62,-31.27 -7.05,-2.34 -14.56,-3.65000005 -22.39,-3.65000005 -18.56,0 -35.44,7.11000005 -48.1,18.75000005 5.78,5.29 10.74,11.49 14.53,18.45 z"
   id="path50"
   inkscape:connector-curvature="0" />


</svg>